<mxfile host="Electron" modified="2024-06-07T10:42:03.090Z" agent="Mozilla/5.0 (Windows NT 10.0; Win64; x64) AppleWebKit/537.36 (KHTML, like Gecko) draw.io/23.1.5 Chrome/120.0.6099.109 Electron/28.1.0 Safari/537.36" etag="HpDNN6GBI1sWjXgPp3_2" version="23.1.5" type="device">
  <diagram name="Page-1" id="ZgrFGK6Iuj5QVa490Wp9">
    <mxGraphModel dx="733" dy="443" grid="1" gridSize="10" guides="1" tooltips="1" connect="1" arrows="1" fold="1" page="1" pageScale="1" pageWidth="827" pageHeight="1169" math="0" shadow="0">
      <root>
        <mxCell id="0" />
        <mxCell id="1" parent="0" />
        <mxCell id="3cr-04SNuVaavwz66_2T-8" value="" style="group" vertex="1" connectable="0" parent="1">
          <mxGeometry x="90" y="70" width="582.5" height="624" as="geometry" />
        </mxCell>
        <mxCell id="-CcqMVnfk2jj7KYGCXWw-1" value="&lt;font style=&quot;font-size: 14px;&quot;&gt;START&lt;/font&gt;" style="ellipse;whiteSpace=wrap;html=1;" parent="3cr-04SNuVaavwz66_2T-8" vertex="1">
          <mxGeometry x="72.5" width="120" height="50" as="geometry" />
        </mxCell>
        <mxCell id="-CcqMVnfk2jj7KYGCXWw-2" value="&lt;font style=&quot;font-size: 14px;&quot;&gt;Khởi tạo các tài nguyên cần sử dụng&lt;/font&gt;" style="rounded=0;whiteSpace=wrap;html=1;" parent="3cr-04SNuVaavwz66_2T-8" vertex="1">
          <mxGeometry y="99" width="265" height="60" as="geometry" />
        </mxCell>
        <mxCell id="-CcqMVnfk2jj7KYGCXWw-8" value="" style="edgeStyle=orthogonalEdgeStyle;rounded=0;orthogonalLoop=1;jettySize=auto;html=1;" parent="3cr-04SNuVaavwz66_2T-8" source="-CcqMVnfk2jj7KYGCXWw-1" target="-CcqMVnfk2jj7KYGCXWw-2" edge="1">
          <mxGeometry relative="1" as="geometry" />
        </mxCell>
        <mxCell id="-CcqMVnfk2jj7KYGCXWw-4" value="&lt;font style=&quot;font-size: 14px;&quot;&gt;true&lt;/font&gt;" style="rhombus;whiteSpace=wrap;html=1;" parent="3cr-04SNuVaavwz66_2T-8" vertex="1">
          <mxGeometry x="62.5" y="239" width="140" height="60" as="geometry" />
        </mxCell>
        <mxCell id="-CcqMVnfk2jj7KYGCXWw-9" value="" style="edgeStyle=orthogonalEdgeStyle;rounded=0;orthogonalLoop=1;jettySize=auto;html=1;" parent="3cr-04SNuVaavwz66_2T-8" source="-CcqMVnfk2jj7KYGCXWw-2" target="-CcqMVnfk2jj7KYGCXWw-4" edge="1">
          <mxGeometry relative="1" as="geometry" />
        </mxCell>
        <mxCell id="-CcqMVnfk2jj7KYGCXWw-5" value="&lt;font style=&quot;font-size: 14px;&quot;&gt;END&lt;/font&gt;" style="ellipse;whiteSpace=wrap;html=1;" parent="3cr-04SNuVaavwz66_2T-8" vertex="1">
          <mxGeometry x="72.5" y="574" width="120" height="50" as="geometry" />
        </mxCell>
        <mxCell id="-CcqMVnfk2jj7KYGCXWw-6" value="" style="edgeStyle=orthogonalEdgeStyle;rounded=0;orthogonalLoop=1;jettySize=auto;html=1;" parent="3cr-04SNuVaavwz66_2T-8" source="-CcqMVnfk2jj7KYGCXWw-4" target="-CcqMVnfk2jj7KYGCXWw-5" edge="1">
          <mxGeometry relative="1" as="geometry" />
        </mxCell>
        <mxCell id="-CcqMVnfk2jj7KYGCXWw-7" value="&lt;font style=&quot;font-size: 12px;&quot;&gt;Sai&lt;/font&gt;" style="edgeLabel;html=1;align=center;verticalAlign=middle;resizable=0;points=[];" parent="-CcqMVnfk2jj7KYGCXWw-6" vertex="1" connectable="0">
          <mxGeometry x="-0.1556" y="-2" relative="1" as="geometry">
            <mxPoint as="offset" />
          </mxGeometry>
        </mxCell>
        <mxCell id="-CcqMVnfk2jj7KYGCXWw-10" value="&lt;font style=&quot;font-size: 14px;&quot;&gt;Lấy và chuyển đổi giá trị cường độ ánh sáng&lt;/font&gt;" style="whiteSpace=wrap;html=1;" parent="3cr-04SNuVaavwz66_2T-8" vertex="1">
          <mxGeometry x="312.5" y="239" width="230" height="60" as="geometry" />
        </mxCell>
        <mxCell id="-CcqMVnfk2jj7KYGCXWw-11" value="" style="edgeStyle=orthogonalEdgeStyle;rounded=0;orthogonalLoop=1;jettySize=auto;html=1;" parent="3cr-04SNuVaavwz66_2T-8" source="-CcqMVnfk2jj7KYGCXWw-4" target="-CcqMVnfk2jj7KYGCXWw-10" edge="1">
          <mxGeometry relative="1" as="geometry" />
        </mxCell>
        <mxCell id="-CcqMVnfk2jj7KYGCXWw-12" value="&lt;font style=&quot;font-size: 12px;&quot;&gt;Đúng&lt;/font&gt;" style="edgeLabel;html=1;align=center;verticalAlign=middle;resizable=0;points=[];" parent="-CcqMVnfk2jj7KYGCXWw-11" vertex="1" connectable="0">
          <mxGeometry x="-0.0333" y="1" relative="1" as="geometry">
            <mxPoint as="offset" />
          </mxGeometry>
        </mxCell>
        <mxCell id="-CcqMVnfk2jj7KYGCXWw-17" style="edgeStyle=orthogonalEdgeStyle;rounded=0;orthogonalLoop=1;jettySize=auto;html=1;exitX=1;exitY=0.5;exitDx=0;exitDy=0;" parent="3cr-04SNuVaavwz66_2T-8" source="-CcqMVnfk2jj7KYGCXWw-13" edge="1">
          <mxGeometry relative="1" as="geometry">
            <mxPoint x="132.5" y="199" as="targetPoint" />
            <Array as="points">
              <mxPoint x="582.5" y="580" />
              <mxPoint x="582.5" y="199" />
              <mxPoint x="132.5" y="199" />
            </Array>
          </mxGeometry>
        </mxCell>
        <mxCell id="-CcqMVnfk2jj7KYGCXWw-13" value="&lt;font style=&quot;font-size: 14px;&quot;&gt;Điều khiển độ sáng đèn Led theo giá trị cường độ ánh sáng&lt;/font&gt;" style="whiteSpace=wrap;html=1;" parent="3cr-04SNuVaavwz66_2T-8" vertex="1">
          <mxGeometry x="312.5" y="550" width="230" height="60" as="geometry" />
        </mxCell>
        <mxCell id="-CcqMVnfk2jj7KYGCXWw-14" value="&lt;font style=&quot;font-size: 14px;&quot;&gt;Cập nhật giá trị cường độ ánh sáng với chu kỳ 100ms&lt;/font&gt;" style="whiteSpace=wrap;html=1;" parent="3cr-04SNuVaavwz66_2T-8" vertex="1">
          <mxGeometry x="312.5" y="343" width="230" height="60" as="geometry" />
        </mxCell>
        <mxCell id="-CcqMVnfk2jj7KYGCXWw-15" value="" style="edgeStyle=orthogonalEdgeStyle;rounded=0;orthogonalLoop=1;jettySize=auto;html=1;" parent="3cr-04SNuVaavwz66_2T-8" source="-CcqMVnfk2jj7KYGCXWw-10" target="-CcqMVnfk2jj7KYGCXWw-14" edge="1">
          <mxGeometry relative="1" as="geometry" />
        </mxCell>
        <mxCell id="3cr-04SNuVaavwz66_2T-5" value="" style="edgeStyle=orthogonalEdgeStyle;rounded=0;orthogonalLoop=1;jettySize=auto;html=1;" edge="1" parent="3cr-04SNuVaavwz66_2T-8" source="3cr-04SNuVaavwz66_2T-3" target="-CcqMVnfk2jj7KYGCXWw-13">
          <mxGeometry relative="1" as="geometry" />
        </mxCell>
        <mxCell id="3cr-04SNuVaavwz66_2T-3" value="&lt;font style=&quot;font-size: 14px;&quot;&gt;Kiểm tra giá trị ADC thay đổi và cập nhật giá trị PWM&lt;/font&gt;" style="whiteSpace=wrap;html=1;" vertex="1" parent="3cr-04SNuVaavwz66_2T-8">
          <mxGeometry x="312.5" y="446" width="230" height="60" as="geometry" />
        </mxCell>
        <mxCell id="3cr-04SNuVaavwz66_2T-4" value="" style="edgeStyle=orthogonalEdgeStyle;rounded=0;orthogonalLoop=1;jettySize=auto;html=1;" edge="1" parent="3cr-04SNuVaavwz66_2T-8" source="-CcqMVnfk2jj7KYGCXWw-14" target="3cr-04SNuVaavwz66_2T-3">
          <mxGeometry relative="1" as="geometry" />
        </mxCell>
      </root>
    </mxGraphModel>
  </diagram>
</mxfile>
